<svg xmlns="http://www.w3.org/2000/svg" viewBox="0 0 400 250" width="400" height="250">
  <rect width="400" height="250" fill="#f8f9fa"/>
  <!-- Grid -->
  <line x1="55" y1="30" x2="55" y2="195" stroke="#dee2e6" stroke-width="1"/>
  <line x1="55" y1="195" x2="375" y2="195" stroke="#dee2e6" stroke-width="1"/>
  <line x1="55" y1="70" x2="375" y2="70" stroke="#dee2e6" stroke-width="0.5" stroke-dasharray="4,4"/>
  <line x1="55" y1="110" x2="375" y2="110" stroke="#dee2e6" stroke-width="0.5" stroke-dasharray="4,4"/>
  <line x1="55" y1="150" x2="375" y2="150" stroke="#dee2e6" stroke-width="0.5" stroke-dasharray="4,4"/>
  <!-- Histogram bars (EXP distribution) -->
  <rect x="65"  y="170" width="22" height="25"  fill="#00369f" opacity="0.3" rx="1"/>
  <rect x="92"  y="155" width="22" height="40"  fill="#00369f" opacity="0.4" rx="1"/>
  <rect x="119" y="120" width="22" height="75"  fill="#00369f" opacity="0.6" rx="1"/>
  <rect x="146" y="75"  width="22" height="120" fill="#00369f" opacity="0.85" rx="1"/>
  <rect x="173" y="55"  width="22" height="140" fill="#00369f" rx="1"/>
  <rect x="200" y="80"  width="22" height="115" fill="#00369f" opacity="0.8" rx="1"/>
  <rect x="227" y="115" width="22" height="80"  fill="#00369f" opacity="0.6" rx="1"/>
  <rect x="254" y="148" width="22" height="47"  fill="#00369f" opacity="0.4" rx="1"/>
  <rect x="281" y="165" width="22" height="30"  fill="#00369f" opacity="0.3" rx="1"/>
  <rect x="308" y="175" width="22" height="20"  fill="#00369f" opacity="0.2" rx="1"/>
  <rect x="335" y="180" width="22" height="15"  fill="#00369f" opacity="0.15" rx="1"/>
  <!-- Event annotation -->
  <line x1="184" y1="35" x2="184" y2="55" stroke="#e63946" stroke-width="1.5"/>
  <circle cx="184" cy="35" r="3" fill="#e63946"/>
  <rect x="148" y="20" width="80" height="16" fill="#e63946" rx="3" opacity="0.12"/>
  <text x="188" y="31" font-family="sans-serif" font-size="8" fill="#e63946" text-anchor="middle">신규 지역 오픈</text>
  <!-- Axis labels -->
  <text x="215" y="213" font-family="sans-serif" font-size="9" fill="#adb5bd" text-anchor="middle">일별 경험치 획득량 →</text>
  <text x="30" y="115" font-family="sans-serif" font-size="9" fill="#adb5bd" text-anchor="middle" transform="rotate(-90,30,115)">유저 수</text>
  <text x="215" y="232" font-family="sans-serif" font-size="10" fill="#495057" text-anchor="middle">285Lv+ 유저 96,000명 실데이터</text>
</svg>
