<svg xmlns="http://www.w3.org/2000/svg" viewBox="0 0 400 250" width="400" height="250">
  <rect width="400" height="250" fill="#f8f9fa"/>
  <!-- Axes -->
  <line x1="55" y1="30" x2="55" y2="200" stroke="#dee2e6" stroke-width="1"/>
  <line x1="55" y1="200" x2="375" y2="200" stroke="#dee2e6" stroke-width="1"/>
  <!-- Cluster A - 캐주얼 (light blue) -->
  <circle cx="100" cy="160" r="6" fill="#6ea8fe" opacity="0.7"/>
  <circle cx="115" cy="170" r="6" fill="#6ea8fe" opacity="0.7"/>
  <circle cx="90" cy="150" r="6" fill="#6ea8fe" opacity="0.7"/>
  <circle cx="125" cy="155" r="6" fill="#6ea8fe" opacity="0.7"/>
  <circle cx="105" cy="175" r="6" fill="#6ea8fe" opacity="0.7"/>
  <circle cx="80" cy="165" r="6" fill="#6ea8fe" opacity="0.7"/>
  <circle cx="130" cy="145" r="6" fill="#6ea8fe" opacity="0.7"/>
  <circle cx="95" cy="180" r="6" fill="#6ea8fe" opacity="0.7"/>
  <ellipse cx="107" cy="163" rx="42" ry="28" fill="none" stroke="#6ea8fe" stroke-width="1.5" stroke-dasharray="4,3" opacity="0.8"/>
  <text x="107" y="210" font-family="sans-serif" font-size="9" fill="#6ea8fe" text-anchor="middle">캐주얼</text>
  <!-- Cluster B - 하드코어 (dark blue) -->
  <circle cx="300" cy="55" r="6" fill="#00369f" opacity="0.8"/>
  <circle cx="320" cy="65" r="6" fill="#00369f" opacity="0.8"/>
  <circle cx="285" cy="70" r="6" fill="#00369f" opacity="0.8"/>
  <circle cx="310" cy="48" r="6" fill="#00369f" opacity="0.8"/>
  <circle cx="330" cy="75" r="6" fill="#00369f" opacity="0.8"/>
  <circle cx="295" cy="45" r="6" fill="#00369f" opacity="0.8"/>
  <ellipse cx="308" cy="60" rx="38" ry="24" fill="none" stroke="#00369f" stroke-width="1.5" stroke-dasharray="4,3" opacity="0.8"/>
  <text x="308" y="95" font-family="sans-serif" font-size="9" fill="#00369f" text-anchor="middle">하드코어</text>
  <!-- Cluster C - 스나이퍼 (teal) -->
  <circle cx="230" cy="130" r="6" fill="#2698ba" opacity="0.75"/>
  <circle cx="245" cy="120" r="6" fill="#2698ba" opacity="0.75"/>
  <circle cx="215" cy="140" r="6" fill="#2698ba" opacity="0.75"/>
  <circle cx="255" cy="135" r="6" fill="#2698ba" opacity="0.75"/>
  <circle cx="225" cy="115" r="6" fill="#2698ba" opacity="0.75"/>
  <ellipse cx="234" cy="128" rx="34" ry="22" fill="none" stroke="#2698ba" stroke-width="1.5" stroke-dasharray="4,3" opacity="0.8"/>
  <text x="234" y="162" font-family="sans-serif" font-size="9" fill="#2698ba" text-anchor="middle">스나이퍼</text>
  <!-- Cluster D - 중간층 (gray) -->
  <circle cx="165" cy="100" r="6" fill="#6c757d" opacity="0.7"/>
  <circle cx="180" cy="110" r="6" fill="#6c757d" opacity="0.7"/>
  <circle cx="150" cy="110" r="6" fill="#6c757d" opacity="0.7"/>
  <circle cx="170" cy="90" r="6" fill="#6c757d" opacity="0.7"/>
  <ellipse cx="166" cy="103" rx="28" ry="20" fill="none" stroke="#6c757d" stroke-width="1.5" stroke-dasharray="4,3" opacity="0.8"/>
  <text x="166" y="135" font-family="sans-serif" font-size="9" fill="#6c757d" text-anchor="middle">중간층</text>
  <!-- Axis labels -->
  <text x="215" y="218" font-family="sans-serif" font-size="9" fill="#adb5bd" text-anchor="middle">킬 수 →</text>
  <text x="30" y="115" font-family="sans-serif" font-size="9" fill="#adb5bd" text-anchor="middle" transform="rotate(-90,30,115)">생존 시간 →</text>
</svg>
